<?xml version="1.0" standalone="no"?>
<!DOCTYPE svg PUBLIC "-//W3C//DTD SVG 20010904//EN"
 "http://www.w3.org/TR/2001/REC-SVG-20010904/DTD/svg10.dtd">
<svg version="1.0" xmlns="http://www.w3.org/2000/svg"
 width="128.000000pt" height="128.000000pt" viewBox="0 0 128.000000 128.000000"
 preserveAspectRatio="xMidYMid meet">

<g transform="translate(0.000000,128.000000) scale(0.100000,-0.100000)"
fill="#000000" stroke="none">
<path d="M496 1194 c-89 -21 -191 -80 -260 -150 -168 -167 -214 -423 -115
-642 83 -185 262 -312 467 -329 l72 -6 0 187 0 186 -70 0 -70 0 0 85 0 85 70
0 70 0 0 88 c0 75 4 96 26 140 41 83 117 116 246 105 l68 -6 0 -72 0 -72 -66
-6 c-86 -6 -97 -18 -102 -107 l-4 -70 82 0 83 0 -7 -71 c-10 -102 -8 -99 -87
-99 l-69 0 0 -169 0 -170 38 16 c108 45 227 158 280 266 63 127 77 264 42 401
-27 109 -63 169 -150 257 -82 83 -177 137 -278 158 -71 15 -194 13 -266 -5z" fill="#4B6BAF"/>
</g>
</svg>
