<svg version="1.0" xmlns="http://www.w3.org/2000/svg"
 width="125.000000pt" height="119.000000pt" viewBox="0 0 125.000000 119.000000"
 preserveAspectRatio="xMidYMid meet">

<g transform="translate(0.000000,119.000000) scale(0.100000,-0.100000)"
fill="#000000" stroke="none">
<path d="M0 595 l0 -595 625 0 625 0 0 595 0 595 -625 0 -625 0 0 -595z m878
319 c66 -46 34 -144 -47 -144 -35 0 -71 39 -71 76 0 66 66 104 118 68z m-418
-269 l0 -205 188 -2 187 -3 3 -48 3 -47 -245 0 -246 0 0 255 0 255 55 0 55 0
0 -205z"/>
</g>
</svg>
