<svg width="75" height="75" viewBox="0 0 75 75" fill="none" xmlns="http://www.w3.org/2000/svg">
<g>
  <path d="m63.934,15.7286l-22.613,-13.06214c-1.62,-0.92814 -3.454,-1.41646 -5.321,-1.41646c-1.866,0 -3.701,0.48832 -5.32,1.41646l-22.6128,13.06214c-1.618,0.9342 -2.9616,2.2778 -3.8956,3.896c-0.9339,1.6181 -1.4254,3.4536 -1.425,5.3219l0,26.1776c0.0135,1.8547 0.5116,3.6738 1.4449,5.2766c0.9333,1.603 2.2693,2.9341 3.8757,3.8615l22.6128,13.0622c1.618,0.9339 3.453,1.4256 5.32,1.4256c1.868,0 3.703,-0.4917 5.321,-1.4256l22.613,-13.0622c1.618,-0.9342 2.961,-2.2778 3.895,-3.896c0.934,-1.6182 1.426,-3.4536 1.425,-5.3219l0,-26.1776c-0.013,-1.8547 -0.511,-3.6738 -1.445,-5.2767c-0.933,-1.6029 -2.269,-2.934 -3.875,-3.8614zm-55.8668,9.2179c-0.0013,-0.9353 0.2439,-1.8544 0.7108,-2.6647c0.4672,-0.8104 1.1396,-1.4832 1.9495,-1.9508l22.6125,-13.0489c0.808,-0.4703 1.726,-0.718 2.66,-0.718c0.935,0 1.853,0.2477 2.661,0.718l22.612,13.0489c0.799,0.4608 1.464,1.1211 1.93,1.9162c0.466,0.7952 0.718,1.6979 0.731,2.6195l0,2.6603c-0.007,2.071 -0.834,4.055 -2.3,5.5181c-1.465,1.4631 -3.451,2.2865 -5.522,2.29l-40.2235,0c-2.8194,-0.0067 -5.5646,0.9037 -7.8213,2.5938l0,-12.9824zm55.8668,26.0978c0.001,0.9353 -0.244,1.8544 -0.711,2.6648c-0.467,0.8102 -1.14,1.4831 -1.95,1.9507l-22.612,13.0489c-0.809,0.467 -1.727,0.7128 -2.661,0.7128c-0.934,0 -1.851,-0.2458 -2.66,-0.7128l-22.6125,-13.0489c-0.7984,-0.4608 -1.4633,-1.1211 -1.9296,-1.9162c-0.4664,-0.7951 -0.7182,-1.6979 -0.7307,-2.6195l0,-2.6603c0.0071,-2.071 0.8337,-4.055 2.2994,-5.5182c1.4656,-1.463 3.4509,-2.2863 5.5219,-2.2899l40.2235,0c2.82,0.0067 5.565,-0.9036 7.822,-2.5937l0,12.9823z" fill="#7B3FE4" id="svg_1"/>
  <path d="m23.6295,23.6165l5.1605,0l0,7.7283l5.321,0l0,-7.7283c0,-1.4111 -0.56,-2.7644 -1.558,-3.7623c-0.998,-0.9977 -2.351,-1.5583 -3.763,-1.5583l-5.1605,0c-1.4111,0 -2.7644,0.5606 -3.7623,1.5583c-0.9978,0.9979 -1.5584,2.3512 -1.5584,3.7623l0,7.7283l5.3207,0l0,-7.7283z" fill="#7B3FE4" id="svg_2"/>
  <path d="m28.79,52.3736l-5.1605,0l0,-7.7281l-5.3207,0l0,7.7281c0,1.4112 0.5606,2.7646 1.5584,3.7623c0.9979,0.9978 2.3512,1.5583 3.7623,1.5583l5.1605,0c1.412,0 2.765,-0.5605 3.763,-1.5583c0.998,-0.9977 1.558,-2.3511 1.558,-3.7623l0,-7.7281l-5.321,0l0,7.7281z" fill="#7B3FE4" id="svg_3"/>
  <path d="m44.593,23.6165l5.174,0l0,7.7283l5.321,0l0,-7.7283c0,-1.4111 -0.561,-2.7644 -1.559,-3.7623c-0.998,-0.9977 -2.351,-1.5583 -3.762,-1.5583l-5.174,0c-1.411,0 -2.765,0.5606 -3.763,1.5583c-0.997,0.9979 -1.558,2.3512 -1.558,3.7623l0,7.7283l5.321,0l0,-7.7283z" fill="#7B3FE4" id="svg_4"/>
  <path d="m49.767,52.3736l-5.174,0l0,-7.7281l-5.321,0l0,7.7281c0,1.4112 0.561,2.7646 1.558,3.7623c0.998,0.9978 2.352,1.5583 3.763,1.5583l5.174,0c1.411,0 2.764,-0.5605 3.762,-1.5583c0.998,-0.9977 1.559,-2.3511 1.559,-3.7623l0,-7.7281l-5.321,0l0,7.7281z" fill="#7B3FE4" id="svg_5"/>
  <path id="svg_6" d="m-328,120c0,0 0,-95 0,-95" opacity="NaN" stroke="#000" fill="#fff"/>
 </g>
</svg>