<svg width="46" height="48" viewBox="0 0 46 48" fill="none" xmlns="http://www.w3.org/2000/svg">
<g id="&#233;&#141;&#165;&#230;&#131;&#167;&#231;&#156;&#176;_1" clip-path="url(#clip0_1950_1208)">
<path id="Vector" d="M32.0237 36.6376C29.7591 37.9907 27.1717 38.7251 24.5258 38.7658C21.8799 38.8065 19.2706 38.152 16.9645 36.8692C14.6584 35.5865 12.7384 33.7214 11.4006 31.4648C10.0629 29.2081 9.35544 26.6408 9.35061 24.0253C9.34578 21.4098 10.0438 18.84 11.3732 16.5785C12.7026 14.3171 14.6157 12.4451 16.917 11.154C19.2184 9.86292 21.8253 9.19903 24.4713 9.2302C27.1173 9.26136 29.7075 9.98648 31.977 11.3314C32.8737 11.8793 33.9307 12.1134 34.9783 11.9962C36.0258 11.8791 37.0031 11.4174 37.7533 10.6853C38.253 10.1924 38.6332 9.59394 38.8652 8.93491C39.0972 8.27588 39.175 7.57344 39.0928 6.88041C39.0105 6.18738 38.7703 5.5218 38.3903 4.93374C38.0103 4.34567 37.5003 3.85043 36.8987 3.48525C33.2181 1.28038 29.0108 0.0820306 24.7075 0.0129328C20.4042 -0.056165 16.1596 1.00647 12.4085 3.09201C8.65739 5.17756 5.53449 8.21107 3.35963 11.8819C1.18477 15.5527 0.0361011 19.7289 0.0312653 23.9828C0.0264295 28.2367 1.1656 32.4154 3.33211 36.0911C5.49862 39.7667 8.61461 42.8071 12.361 44.901C16.1074 46.9949 20.3495 48.0669 24.6529 48.0074C28.9563 47.9479 33.1664 46.7589 36.852 44.5622C37.3773 44.2488 37.8349 43.8363 38.1988 43.3481C38.5627 42.86 38.8258 42.3057 38.973 41.7171C39.1202 41.1284 39.1487 40.5169 39.0568 39.9174C38.9649 39.3178 38.7544 38.7421 38.4374 38.2229C38.1203 37.7038 37.703 37.2515 37.2091 36.8918C36.7152 36.5321 36.1544 36.2721 35.5589 36.1266C34.9633 35.9811 34.3446 35.9529 33.738 36.0438C33.1315 36.1346 32.5489 36.3427 32.0237 36.656V36.6376Z" fill="#356DF3"/>
<path id="Vector_2" d="M41.7734 16.9705C40.5866 16.3343 39.2572 16.0026 37.907 16.0059C37.504 16.0079 37.1016 16.0356 36.7023 16.089C35.3682 16.2875 34.1061 16.8144 33.032 17.6213L32.9946 17.649C30.2536 19.7536 25.6867 20.9582 22.4133 19.772C21.964 19.61 21.4907 19.5226 21.0125 19.5136H20.8677C19.6627 19.5136 18.507 19.9867 17.655 20.8289C16.8029 21.6711 16.3242 22.8133 16.3242 24.0043C16.3242 25.1954 16.8029 26.3376 17.655 27.1798C18.507 28.022 19.6627 28.4951 20.8677 28.4951C21.0171 28.4951 21.1666 28.4951 21.3347 28.4951C21.5958 28.4737 21.854 28.4258 22.1052 28.352C22.2749 28.3048 22.4418 28.2478 22.6048 28.1813C25.8735 26.6905 30.0061 27.9966 32.9713 30.332L33.088 30.4197C34.1464 31.2046 35.3848 31.7183 36.6929 31.9151C38.5741 32.1966 40.4955 31.8139 42.1196 30.8343C43.7437 29.8547 44.9666 28.3408 45.5736 26.5586C46.1806 24.7763 46.1329 22.8396 45.4387 21.0887C44.7446 19.3378 43.4485 17.8846 41.7781 16.9843L41.7734 16.9705Z" fill="#356DF3"/>
</g>
<defs>
<clipPath id="clip0_1950_1208">
<rect width="46" height="48" fill="white"/>
</clipPath>
</defs>
</svg>
